<svg width="36" height="37" viewBox="0 0 36 37" fill="none" xmlns="http://www.w3.org/2000/svg">
<ellipse cx="18" cy="18.5" rx="18" ry="18.5" fill="#2680E0"/>
<path d="M11.6531 26.8276V24.1685L17.8661 18.4157C18.3945 17.9043 18.8377 17.4441 19.1957 17.035C19.5593 16.6259 19.8349 16.2254 20.0224 15.8333C20.2099 15.4356 20.3036 15.0066 20.3036 14.5464C20.3036 14.035 20.1871 13.5947 19.9542 13.2254C19.7212 12.8504 19.4031 12.5634 18.9996 12.3646C18.5962 12.16 18.1388 12.0578 17.6275 12.0578C17.0934 12.0578 16.6275 12.1657 16.2298 12.3816C15.832 12.5975 15.5252 12.9072 15.3093 13.3106C15.0934 13.714 14.9854 14.1941 14.9854 14.7509H11.4826C11.4826 13.6089 11.7411 12.6174 12.2582 11.7765C12.7752 10.9356 13.4996 10.285 14.4315 9.82479C15.3633 9.36457 16.4371 9.13445 17.6531 9.13445C18.9031 9.13445 19.9911 9.35605 20.9173 9.79923C21.8491 10.2367 22.5735 10.8447 23.0906 11.6231C23.6076 12.4015 23.8661 13.2935 23.8661 14.2992C23.8661 14.9583 23.7354 15.6089 23.4741 16.2509C23.2184 16.893 22.761 17.606 22.1019 18.3901C21.4428 19.1685 20.5138 20.1032 19.315 21.1941L16.7667 23.6913V23.8106H24.0962V26.8276H11.6531Z" fill="white"/>
</svg>
