<svg width="22" height="22" viewBox="0 0 22 22" fill="none" xmlns="http://www.w3.org/2000/svg">
<path d="M11.0002 19.25C9.84235 18.2624 8.76917 17.1797 7.79183 16.0132C6.32516 14.2615 4.5835 11.6527 4.5835 9.16665C4.5822 6.57024 6.14572 4.22893 8.54448 3.23527C10.9432 2.24161 13.7044 2.79146 15.5395 4.62823C16.7463 5.82963 17.4223 7.46384 17.4169 9.16665C17.4169 11.6527 15.6752 14.2615 14.2085 16.0132C13.2312 17.1797 12.158 18.2624 11.0002 19.25ZM11.0002 4.58332C8.47012 4.58635 6.41986 6.6366 6.41683 9.16665C6.41683 10.2355 6.89991 12.0862 9.19891 14.8372C9.76554 15.5137 10.3668 16.1605 11.0002 16.775C11.6336 16.1612 12.2351 15.5154 12.8023 14.8399C15.1004 12.0853 15.5835 10.2346 15.5835 9.16665C15.5805 6.6366 13.5302 4.58635 11.0002 4.58332ZM11.0002 11.9167C9.48138 11.9167 8.25016 10.6854 8.25016 9.16665C8.25016 7.64787 9.48138 6.41665 11.0002 6.41665C12.5189 6.41665 13.7502 7.64787 13.7502 9.16665C13.7502 9.896 13.4604 10.5955 12.9447 11.1112C12.429 11.6269 11.7295 11.9167 11.0002 11.9167Z" fill="#D9D9D9"/>
</svg>
