<svg width="22" height="21" viewBox="0 0 22 21" fill="none" xmlns="http://www.w3.org/2000/svg">
<g clip-path="url(#clip0_747_18)">
<path d="M6.58398 9.44563C7.84398 11.9219 9.86961 13.9475 12.3502 15.2075L14.2752 13.2781C14.5159 13.0375 14.8615 12.9675 15.1634 13.0638C16.1434 13.3875 17.1977 13.5625 18.2871 13.5625C18.7727 13.5625 19.1621 13.9519 19.1621 14.4375V17.5C19.1621 17.9856 18.7727 18.375 18.2871 18.375C10.0709 18.375 3.41211 11.7163 3.41211 3.5C3.41211 3.01437 3.80586 2.625 4.28711 2.625H7.34961C7.83523 2.625 8.22461 3.01437 8.22461 3.5C8.22461 4.58938 8.39961 5.64375 8.72336 6.62375C8.81961 6.92563 8.74961 7.27125 8.50898 7.51188L6.58398 9.44563V9.44563Z" fill="white"/>
</g>
<defs>
<clipPath id="clip0_747_18">
<rect width="21" height="21" fill="white" transform="translate(0.787109)"/>
</clipPath>
</defs>
</svg>
